<?xml version="1.0" standalone="no"?>
<!DOCTYPE svg PUBLIC "-//W3C//DTD SVG 20010904//EN"
 "http://www.w3.org/TR/2001/REC-SVG-20010904/DTD/svg10.dtd">
<svg version="1.0" xmlns="http://www.w3.org/2000/svg"
 width="256.000000pt" height="256.000000pt" viewBox="0 0 256.000000 256.000000"
 preserveAspectRatio="xMidYMid meet">
<metadata>
Created by potrace 1.14, written by Peter Selinger 2001-2017
</metadata>
<g transform="translate(0.000000,256.000000) scale(0.100000,-0.100000)"
fill="#000000" stroke="none">
<path d="M1219 2464 c-30 -19 -61 -39 -69 -44 -26 -18 -723 -461 -769 -489
-24 -14 -61 -38 -82 -54 l-39 -27 2 -597 3 -596 95 -57 c72 -43 585 -345 680
-400 8 -5 61 -36 117 -70 56 -33 113 -60 125 -59 13 0 37 9 53 20 17 10 37 22
45 26 8 3 17 9 20 12 3 3 25 17 50 30 25 13 52 30 61 37 8 8 19 14 22 14 5 0
74 39 157 90 53 32 197 116 210 122 8 4 101 59 205 121 l190 113 2 594 c2 327
-1 600 -5 605 -4 6 -50 37 -102 69 -52 33 -124 78 -160 101 -88 57 -174 111
-240 153 -30 19 -67 43 -82 53 -15 11 -31 19 -37 19 -5 0 -11 3 -13 8 -1 4
-57 41 -123 82 -66 41 -121 78 -123 82 -2 5 -8 8 -14 8 -5 0 -30 15 -56 32
-26 18 -52 33 -58 34 -6 1 -35 -13 -65 -32z"/>
</g>
</svg>
